<svg id="Capa_1" enable-background="new 0 0 512 512" height="512" viewBox="0 0 512 512" width="512" xmlns="http://www.w3.org/2000/svg"><g><g><g><g><path d="m491.947 294.352h-471.894c-6.933 0-12.553-5.62-12.553-12.553v-71.062c0-6.933 5.62-12.553 12.553-12.553h471.894c6.933 0 12.553 5.62 12.553 12.553v71.062c0 6.932-5.62 12.553-12.553 12.553z" fill="#e0d3ce"/><path d="m491.947 198.184h-78.319v96.168h78.319c6.933 0 12.553-5.62 12.553-12.553v-71.062c0-6.933-5.62-12.553-12.553-12.553z" fill="#756f6f"/><path d="m504.496 210.733v71.069c0 6.93-5.621 12.552-12.551 12.552h-37.644c6.93 0 12.551-5.622 12.551-12.552v-71.069c0-6.93-5.621-12.551-12.551-12.551h37.644c6.93 0 12.551 5.622 12.551 12.551z" fill="#5b5555"/></g><g><g><g><path d="m428.032 459.653c-6.688 6.688-17.531 6.688-24.219 0l-127.617-127.617 24.219-24.219 127.617 127.617c6.688 6.688 6.688 17.531 0 24.219z" fill="#1785f8"/><g><path d="m312.624 368.464 91.189 91.189c6.688 6.688 17.531 6.688 24.219 0s6.688-17.531 0-24.219l-91.189-91.189z" fill="#efe2dd"/></g></g><circle cx="213.12" cy="242.878" fill="#31a7fb" r="123.077"/><g fill="#1c96f9"><path d="m192.63 156.046c-18.47 4.33-34.72 14.41-46.77 28.25-4.82-5.03-7.78-11.85-7.78-19.36 0-15.46 12.54-28 28-28 12.35 0 22.84 8.01 26.55 19.11z"/><path d="m336.197 242.882c0 67.971-55.105 123.076-123.076 123.076-5.14 0-10.196-.314-15.169-.932 60.81-7.474 107.897-59.313 107.897-122.144 0-62.841-47.086-114.68-107.907-122.154 4.972-.618 10.039-.932 15.179-.932 67.971 0 123.076 55.105 123.076 123.086z"/></g></g><circle cx="213.12" cy="242.878" fill="#d4f2f6" r="89.203"/><g fill="#a8e7ef"><path d="m194.08 164.936c0 15.46-12.54 28-28 28-7.95 0-15.13-3.32-20.22-8.64 12.05-13.84 28.3-23.92 46.77-28.25.94 2.79 1.45 5.78 1.45 8.89z"/><path d="m302.322 242.882c0 49.264-39.937 89.2-89.2 89.2-5.266 0-10.416-.461-15.43-1.329 41.915-7.307 73.77-43.873 73.77-87.871 0-44.009-31.855-80.574-73.77-87.881 5.014-.869 10.165-1.329 15.43-1.329 49.264-.001 89.2 39.935 89.2 89.21z"/></g></g><g><circle cx="114.164" cy="72.085" fill="#a8e7ef" r="24.742"/><path d="m138.904 72.082c0 13.669-11.08 24.75-24.739 24.75-4.579 0-8.876-1.244-12.55-3.426 9.712-2.239 16.948-10.933 16.948-21.324 0-10.38-7.225-19.086-16.937-21.324 3.675-2.171 7.96-3.415 12.539-3.415 13.658 0 24.739 11.081 24.739 24.739z" fill="#70d9e6"/></g><g><circle cx="322.424" cy="94.33" fill="#64b9fc" r="22.239"/><path d="m344.661 94.327c0 12.287-9.96 22.246-22.236 22.246-4.116 0-7.978-1.118-11.281-3.079 8.73-2.012 15.234-9.827 15.234-19.167 0-9.33-6.494-17.155-15.224-19.167 3.303-1.951 7.155-3.069 11.271-3.069 12.277 0 22.236 9.959 22.236 22.236z" fill="#31a7fb"/></g><g><path d="m138.081 142.403c0-15.463 12.535-27.998 27.998-27.998s27.998 12.535 27.998 27.998-12.535 27.997-27.998 27.997-27.998-12.535-27.998-27.997" fill="#bcea73"/><path d="m151.879 166.53c10.99-2.533 19.179-12.372 19.179-24.13 0-11.746-8.176-21.597-19.166-24.13 4.158-2.457 9.007-3.864 14.189-3.864 15.456 0 27.994 12.539 27.994 27.994 0 15.468-12.539 28.007-27.994 28.007-5.182-.001-10.044-1.408-14.202-3.877" fill="#99d53b"/></g></g></g><g><path d="m491.947 190.684h-104.721c-4.143 0-7.5 3.358-7.5 7.5s3.357 7.5 7.5 7.5h18.902v81.168h-70.058c4.932-13.747 7.627-28.551 7.627-43.974 0-12.918-1.895-25.401-5.406-37.194h11.908c4.143 0 7.5-3.358 7.5-7.5s-3.357-7.5-7.5-7.5h-17.4c-20.18-46.094-66.226-78.383-119.679-78.383-8.376 0-16.74.807-24.903 2.383-6.075-4.862-13.77-7.779-22.138-7.779-19.332 0-35.094 15.536-35.48 34.778-16.32 13.315-28.997 30.105-37.225 49.001h-73.321c-11.057 0-20.053 8.995-20.053 20.053v71.062c0 11.057 8.996 20.053 20.053 20.053h76.564c7.559 14.91 17.974 28.373 30.799 39.541 23.745 20.676 54.182 32.063 85.704 32.063 26.639 0 51.435-8.025 72.113-21.775l113.277 113.276c4.801 4.8 11.106 7.2 17.412 7.2 6.307 0 12.613-2.4 17.414-7.201 9.601-9.602 9.601-25.224 0-34.826l-112.923-112.922c3.397-4.888 6.472-10.016 9.187-15.357h162.347c11.057 0 20.053-8.996 20.053-20.053v-71.062c0-11.057-8.996-20.052-20.053-20.052zm-325.868-68.779c11.303 0 20.498 9.195 20.498 20.498 0 11.302-9.195 20.498-20.498 20.498s-20.498-9.195-20.498-20.498 9.195-20.498 20.498-20.498zm-28.812 208.175c-20.813-18.123-34.478-43.055-38.478-70.203-.604-4.099-4.429-6.931-8.513-6.327-4.099.604-6.931 4.415-6.327 8.513 1.251 8.492 3.342 16.791 6.206 24.789h-70.102c-2.786 0-5.053-2.267-5.053-5.053v-71.062c0-2.786 2.267-5.053 5.053-5.053h67.867c-1.65 5.578-2.94 11.291-3.84 17.115-.632 4.093 2.174 7.924 6.268 8.557.388.06.773.089 1.153.089 3.637 0 6.831-2.651 7.403-6.356 3.976-25.748 16.451-49.122 35.449-66.789 2.885 5.735 7.278 10.581 12.657 14.022-19.335 18.165-30.594 43.751-30.594 70.557 0 22.26 7.749 43.991 21.82 61.189 13.873 16.955 33.247 28.804 54.555 33.365.529.113 1.057.167 1.577.167 3.461 0 6.572-2.411 7.326-5.932.867-4.05-1.714-8.037-5.765-8.904-37.382-8.001-64.514-41.599-64.514-79.886 0-25.476 12.039-49.652 32.291-65.066.785.052 1.574.088 2.371.088 11.789 0 22.249-5.782 28.708-14.654 5.981-1.37 12.138-2.071 18.333-2.071 45.051 0 81.702 36.652 81.702 81.703 0 38.512-27.32 72.15-64.963 79.984-4.055.844-6.658 4.816-5.814 8.871.737 3.54 3.856 5.973 7.335 5.973.507 0 1.021-.052 1.536-.159 44.563-9.275 76.906-49.089 76.906-94.67 0-53.322-43.381-96.703-96.702-96.703-3.966 0-7.92.244-11.838.723.187-1.473.295-2.971.295-4.495 0-5.044-1.064-9.842-2.969-14.192 4.801-.6 9.653-.91 14.512-.91 63.729 0 115.577 51.848 115.577 115.577s-51.845 115.578-115.575 115.578c-27.901 0-54.84-10.077-75.853-28.375zm285.462 124.269c-3.753 3.752-9.86 3.753-13.613 0l-85.885-85.885 13.612-13.612 85.886 85.885c3.752 3.753 3.752 9.86 0 13.612zm-96.493-110.104-13.612 13.612-15.281-15.281c4.906-4.151 9.502-8.655 13.75-13.475zm170.764-62.446c0 2.786-2.267 5.053-5.053 5.053h-70.819v-81.168h70.819c2.786 0 5.053 2.267 5.053 5.053z"/><path d="m449.47 228.134c-5.766 5.766-7.176 14.258-4.244 21.365l-7.841 7.841c-2.929 2.929-2.929 7.678 0 10.606 1.465 1.464 3.385 2.197 5.304 2.197s3.839-.732 5.304-2.197l7.841-7.841c2.396.989 4.947 1.489 7.501 1.489 5.02 0 10.041-1.911 13.863-5.732h.001c7.644-7.645 7.644-20.083-.001-27.728-7.645-7.644-20.084-7.643-27.728 0zm17.122 17.121c-1.797 1.796-4.72 1.796-6.515 0-1.796-1.796-1.796-4.719 0-6.515.897-.898 2.077-1.347 3.257-1.347s2.359.449 3.257 1.347c1.796 1.797 1.796 4.719.001 6.515z"/><path d="m53.161 158.974c1.465 1.464 3.385 2.197 5.304 2.197s3.839-.732 5.304-2.197l5.961-5.961 5.961 5.961c1.465 1.464 3.385 2.197 5.304 2.197s3.839-.732 5.304-2.197c2.929-2.929 2.929-7.678 0-10.606l-5.962-5.962 5.962-5.962c2.929-2.929 2.929-7.678 0-10.606-2.93-2.929-7.678-2.929-10.607 0l-5.961 5.961-5.961-5.961c-2.93-2.929-7.678-2.929-10.607 0s-2.929 7.678 0 10.606l5.962 5.962-5.962 5.962c-2.931 2.928-2.931 7.677-.002 10.606z"/><path d="m351.248 147.709 5.962 5.962-5.962 5.962c-2.929 2.929-2.929 7.678 0 10.606 1.465 1.464 3.385 2.197 5.304 2.197s3.839-.732 5.304-2.197l5.961-5.961 5.961 5.961c1.465 1.464 3.385 2.197 5.304 2.197s3.839-.732 5.304-2.197c2.929-2.929 2.929-7.678 0-10.606l-5.962-5.962 5.962-5.962c2.929-2.929 2.929-7.678 0-10.606-2.93-2.929-7.678-2.929-10.607 0l-5.961 5.961-5.961-5.961c-2.93-2.929-7.678-2.929-10.607 0-2.931 2.928-2.931 7.677-.002 10.606z"/><path d="m114.164 104.327c17.778 0 32.241-14.463 32.241-32.242s-14.463-32.242-32.241-32.242-32.242 14.464-32.242 32.242 14.464 32.242 32.242 32.242zm0-49.484c9.507 0 17.241 7.734 17.241 17.242s-7.734 17.242-17.241 17.242c-9.508 0-17.242-7.734-17.242-17.242s7.734-17.242 17.242-17.242z"/><path d="m322.424 124.068c16.398 0 29.739-13.341 29.739-29.739s-13.341-29.739-29.739-29.739-29.739 13.341-29.739 29.739c0 16.399 13.34 29.739 29.739 29.739zm0-44.478c8.127 0 14.739 6.612 14.739 14.739s-6.612 14.739-14.739 14.739-14.739-6.612-14.739-14.739 6.612-14.739 14.739-14.739z"/><path d="m229.184 270.813c2.119 0 4.225-.893 5.708-2.631 2.689-3.15 2.315-7.884-.835-10.574-6.115-5.22-14.236-8.109-22.866-8.135-.039 0-.078 0-.118 0-8.585 0-16.677 2.838-22.796 7.998-3.166 2.67-3.569 7.402-.898 10.569 2.669 3.166 7.401 3.569 10.568.899 3.367-2.84 8.149-4.465 13.13-4.465h.069c5.006.015 9.808 1.671 13.173 4.544 1.412 1.206 3.143 1.795 4.865 1.795z"/><path d="m171.369 221.723h-.088c-4.143 0-7.456 3.358-7.456 7.5s3.401 7.5 7.544 7.5 7.5-3.358 7.5-7.5-3.357-7.5-7.5-7.5z"/><path d="m252.098 236.667c.029.003.058.01.087.013.158.017.319.02.48.027.094.004.187.015.282.016h.042c4.123 0 7.477-3.331 7.499-7.459.02-3.64-2.557-6.687-5.994-7.388-.025-.005-.051-.007-.076-.012-.216-.042-.435-.078-.657-.1-.09-.009-.182-.009-.272-.015-.153-.01-.304-.025-.458-.026h-.089c-.014 0-.027 0-.042 0-.258 0-.513.013-.765.039-3.782.38-6.699 3.575-6.699 7.462-.001 3.843 2.929 7.007 6.662 7.443z"/></g></g></svg>